<svg width="266" height="48" viewBox="0 0 266 48" fill="none" xmlns="http://www.w3.org/2000/svg">
<g clip-path="url(#clip0_11_33)">
<path d="M23.8416 0C10.6751 0 0 10.6751 0 23.8416C0 37.0081 10.6751 47.6832 23.8416 47.6832C37.0081 47.6832 47.6832 37.0081 47.6832 23.8416C47.6832 10.6751 37.0081 0 23.8416 0ZM35.5518 16.3335L31.6378 34.771C31.3497 36.0783 30.5709 36.3962 29.4841 35.7803L23.5237 31.3894L20.6508 34.159C20.3726 34.5167 19.9415 34.7451 19.4587 34.7451C19.4547 34.7451 19.4527 34.7451 19.4488 34.7451L19.872 28.6775L30.9186 18.6997C31.3954 18.2766 30.8113 18.0362 30.1775 18.4593L16.5302 27.0542L10.6492 25.2184C9.37769 24.8151 9.34193 23.9469 10.9175 23.323L33.8968 14.4659C34.9657 14.0765 35.8955 14.7202 35.5498 16.3355L35.5518 16.3335Z" fill="black"/>
</g>
<path d="M132.525 2.97607C121.019 2.97607 111.66 12.3361 111.66 23.8412C111.66 35.3466 121.019 44.707 132.525 44.707C144.029 44.707 153.39 35.3466 153.39 23.8412C153.39 12.3361 144.029 2.97607 132.525 2.97607ZM138.422 16.1478C138.422 16.2466 138.382 16.3414 138.313 16.4112C138.243 16.4811 138.148 16.5203 138.049 16.5203L135.677 16.5218C134.112 16.5218 133.826 17.1313 133.826 18.3315V20.8215H137.894C138.001 20.8215 138.103 20.8677 138.174 20.9482C138.244 21.0286 138.277 21.1355 138.264 21.2417L137.684 25.7243C137.673 25.8141 137.629 25.8966 137.561 25.9564C137.493 26.0162 137.406 26.0492 137.315 26.0491H133.826V37.1798C133.826 37.2786 133.787 37.3734 133.717 37.4432C133.647 37.5131 133.553 37.5523 133.454 37.5523H128.825C128.727 37.5523 128.632 37.5131 128.562 37.4432C128.492 37.3734 128.453 37.2786 128.453 37.1798V26.0491H124.953C124.854 26.0491 124.76 26.0099 124.69 25.94C124.62 25.8702 124.581 25.7754 124.581 25.6766V21.194C124.581 21.0952 124.62 21.0005 124.69 20.9306C124.76 20.8607 124.854 20.8215 124.953 20.8215H128.453V17.8879C128.453 14.0024 130.804 11.5892 134.59 11.5892C136.218 11.5892 137.656 11.7103 138.098 11.7688C138.188 11.7806 138.27 11.8246 138.329 11.8925C138.389 11.9604 138.422 12.0476 138.422 12.1379V16.1478Z" fill="black"/>
<g clip-path="url(#clip1_11_33)">
<path d="M250.888 16.5177C250.681 15.9819 250.364 15.4953 249.958 15.0894C249.552 14.6835 249.065 14.3672 248.529 14.1608C247.791 13.8875 247.011 13.743 246.224 13.7337C244.915 13.6741 244.523 13.6592 241.207 13.6592C237.892 13.6592 237.5 13.6741 236.191 13.7337C235.403 13.7427 234.623 13.8872 233.884 14.1608C233.348 14.3677 232.861 14.6846 232.455 15.0909C232.049 15.4973 231.733 15.9841 231.527 16.5202C231.253 17.2583 231.109 18.0378 231.1 18.8249C231.04 20.1337 231.025 20.5261 231.025 23.8415C231.025 27.157 231.04 27.5494 231.1 28.8582C231.109 29.6461 231.253 30.4265 231.527 31.1654C231.734 31.7012 232.051 32.1877 232.457 32.5936C232.863 32.9996 233.35 33.3159 233.886 33.5222C234.624 33.7956 235.404 33.9401 236.191 33.9494C237.5 34.009 237.892 34.0239 241.207 34.0239C244.523 34.0239 244.915 34.009 246.224 33.9494C247.012 33.9403 247.792 33.7958 248.531 33.5222C249.067 33.3153 249.554 32.9985 249.96 32.5921C250.366 32.1858 250.682 31.6989 250.888 31.1629C251.162 30.4248 251.306 29.6452 251.315 28.8582C251.375 27.5494 251.39 27.157 251.39 23.8415C251.39 20.5261 251.375 20.1337 251.315 18.8249C251.306 18.037 251.162 17.2566 250.888 16.5177ZM241.207 30.2191C239.946 30.2191 238.713 29.8451 237.664 29.1443C236.615 28.4435 235.798 27.4475 235.315 26.2821C234.833 25.1168 234.706 23.8344 234.952 22.5973C235.198 21.3602 235.806 20.2238 236.698 19.3319C237.59 18.4399 238.726 17.8325 239.963 17.5864C241.2 17.3404 242.483 17.4667 243.648 17.9494C244.813 18.4321 245.81 19.2495 246.51 20.2983C247.211 21.3471 247.585 22.5801 247.585 23.8415C247.585 25.533 246.913 27.1551 245.717 28.3512C244.521 29.5472 242.899 30.2191 241.207 30.2191ZM247.836 18.7032C247.541 18.7032 247.253 18.6158 247.008 18.452C246.763 18.2883 246.572 18.0556 246.459 17.7833C246.346 17.511 246.317 17.2114 246.374 16.9224C246.432 16.6333 246.574 16.3678 246.782 16.1594C246.991 15.951 247.256 15.8091 247.545 15.7516C247.834 15.6941 248.134 15.7236 248.406 15.8364C248.678 15.9492 248.911 16.1402 249.075 16.3852C249.239 16.6303 249.326 16.9184 249.326 17.2131C249.326 17.6083 249.169 17.9873 248.89 18.2667C248.61 18.5462 248.231 18.7032 247.836 18.7032Z" fill="black"/>
<path d="M241.208 27.9816C243.494 27.9816 245.348 26.1281 245.348 23.8417C245.348 21.5552 243.494 19.7017 241.208 19.7017C238.921 19.7017 237.068 21.5552 237.068 23.8417C237.068 26.1281 238.921 27.9816 241.208 27.9816Z" fill="black"/>
<path d="M241.208 0C236.492 0 231.883 1.39828 227.962 4.01803C224.041 6.63778 220.985 10.3613 219.181 14.7178C217.376 19.0743 216.904 23.868 217.824 28.4928C218.744 33.1177 221.015 37.3658 224.349 40.7001C227.683 44.0344 231.931 46.3051 236.556 47.2251C241.181 48.145 245.975 47.6728 250.331 45.8683C254.688 44.0638 258.411 41.008 261.031 37.0873C263.651 33.1665 265.049 28.557 265.049 23.8416C265.049 17.5184 262.537 11.4542 258.066 6.98304C253.595 2.51187 247.531 0 241.208 0ZM253.551 28.9626C253.529 29.9922 253.334 31.0108 252.972 31.975C252.653 32.7998 252.165 33.5487 251.54 34.174C250.915 34.7992 250.166 35.287 249.341 35.6059C248.377 35.9676 247.358 36.1633 246.329 36.1846C245.002 36.2442 244.58 36.2591 241.208 36.2591C237.835 36.2591 237.413 36.2442 236.087 36.1846C235.057 36.1633 234.038 35.9676 233.074 35.6059C232.249 35.287 231.5 34.7992 230.875 34.174C230.25 33.5487 229.762 32.7998 229.443 31.975C229.082 31.0108 228.886 29.9922 228.865 28.9626C228.805 27.6364 228.79 27.2142 228.79 23.8416C228.79 20.469 228.805 20.0468 228.865 18.7206C228.886 17.691 229.082 16.6724 229.443 15.7081C229.762 14.8834 230.25 14.1344 230.875 13.5092C231.5 12.8839 232.249 12.3962 233.074 12.0773C234.038 11.7156 235.057 11.5199 236.087 11.4986C237.413 11.439 237.835 11.4241 241.208 11.4241C244.58 11.4241 245.002 11.439 246.329 11.4986C247.358 11.5199 248.377 11.7156 249.341 12.0773C250.166 12.3962 250.915 12.8839 251.54 13.5092C252.165 14.1344 252.653 14.8834 252.972 15.7081C253.334 16.6724 253.529 17.691 253.551 18.7206C253.61 20.0468 253.625 20.469 253.625 23.8416C253.625 27.2142 253.61 27.6364 253.551 28.9626Z" fill="black"/>
</g>
<defs>
<clipPath id="clip0_11_33">
<rect width="47.6832" height="47.6832" fill="white"/>
</clipPath>
<clipPath id="clip1_11_33">
<rect width="47.6832" height="47.6832" fill="white" transform="translate(217.366)"/>
</clipPath>
</defs>
</svg>
